<svg width="235" height="50" viewBox="0 0 235 50" fill="none" xmlns="http://www.w3.org/2000/svg">
<path d="M77.5333 25.4374H72.642C72.5388 27.2079 72.606 28.947 72.594 30.6838C72.582 32.4326 72.5916 34.1814 72.5916 35.9302V41.15C71.9024 41.3261 67.3881 41.3261 66.6869 41.15C66.6749 40.9209 66.6485 40.67 66.6485 40.4191C66.6485 33.3733 66.6269 26.3275 66.6629 19.2816C66.6725 17.4339 67.0687 15.6658 68.2934 14.1775C69.0978 13.1982 70.0823 12.4939 71.2853 12.1176C74.1716 11.2203 77.0411 11.2637 79.8457 12.4094C81.5794 13.1186 82.5447 14.5345 83.0418 16.305C83.3299 17.3302 83.3803 18.3722 83.3803 19.4312C83.3707 26.3998 83.3755 33.3685 83.3755 40.3371C83.3755 40.6145 83.3755 40.8919 83.3755 41.2248H77.5766C77.4877 39.4688 77.5477 37.7296 77.5357 35.9929C77.5261 34.2441 77.5357 32.4953 77.5357 30.7465V25.4374H77.5333ZM77.5333 21.549C77.4829 19.8026 77.6894 18.1431 77.3196 16.498C77.1395 15.702 76.6713 15.1279 75.8717 14.9784C75.3314 14.8771 74.7479 14.906 74.2004 14.9856C73.5209 15.0845 73.0382 15.4994 72.8725 16.2013C72.7621 16.6717 72.6252 17.1493 72.606 17.6269C72.5652 18.7292 72.5868 19.834 72.594 20.9363C72.594 21.1317 72.6444 21.3247 72.6756 21.549H77.5333Z" fill="#00A5E7"/>
<path d="M63.4983 17.9921C61.5005 17.9921 59.5027 17.9921 57.5072 17.9921C55.9704 17.9921 54.4312 17.9849 52.8945 17.9969C52.4718 17.9993 52.0972 17.9173 51.7226 17.7099C48.9204 16.1685 46.1086 14.6441 43.3015 13.1124C41.5054 12.133 39.7093 11.1513 37.9107 10.172C36.0426 9.15646 34.1648 8.15784 32.3062 7.12544C31.9244 6.91317 31.6459 6.918 31.2569 7.13509C29.0886 8.34598 26.9011 9.52069 24.7183 10.7075C20.3577 13.081 15.997 15.4545 11.6316 17.8184C11.4395 17.9222 11.1994 17.9825 10.9809 17.9825C7.41982 17.9897 3.85639 17.9825 0.295352 17.9825C0.244926 17.9825 0.196901 17.9607 0 17.9149C10.6519 11.9111 21.2077 5.96279 31.7852 0C42.365 5.96279 52.9281 11.9208 63.4935 17.8763C63.4935 17.9149 63.4935 17.9535 63.4959 17.9921H63.4983Z" fill="#00A5E7"/>
<path d="M18.6355 40.3439C17.262 33.0352 15.8981 25.7674 14.5342 18.4996C15.0408 18.3187 19.3943 18.2512 20.9767 18.408C21.0535 18.8108 21.1424 19.2305 21.2096 19.6551C21.4041 20.8684 21.5938 22.0841 21.7763 23.2998C21.9492 24.4648 22.1101 25.6323 22.2758 26.7998C22.4439 27.989 22.5975 29.183 22.78 30.3698C22.9409 31.407 23.1426 32.437 23.3107 33.4718C23.4548 34.3546 23.5724 35.2399 23.6997 36.1034C24.288 36.2771 38.8131 36.3205 39.872 36.1492C40.3259 33.233 40.7917 30.2805 41.2383 27.3281C41.685 24.3732 42.1124 21.4135 42.5566 18.408H49.0328C48.9175 19.093 48.8166 19.7636 48.6942 20.4294C48.0386 23.9824 47.3807 27.5331 46.7156 31.0837C46.461 32.4442 46.1681 33.795 45.9111 35.1554C45.6614 36.4869 45.4429 37.8257 45.1932 39.1572C45.1187 39.5527 44.9891 39.9363 44.881 40.3439H18.6355Z" fill="#00A5E7"/>
<path d="M109.331 39.4999C108.313 40.4237 107.165 40.7084 105.928 40.6818C105.215 40.6673 104.49 40.6553 103.796 40.5154C102.367 40.2308 101.371 39.3455 100.754 38.0381C100.29 37.0564 100.019 36.0168 99.8723 34.9409C99.5937 32.8762 99.5025 30.7969 99.5673 28.7176C99.6225 26.8724 99.7234 25.0247 100.18 23.2228C100.564 21.7128 101.313 20.4102 102.542 19.4357C103.301 18.8327 104.206 18.5601 105.169 18.4998C106.466 18.4202 107.719 18.5746 108.795 19.1752C109.098 19.0281 109.326 18.8207 109.559 18.8158C111.122 18.7893 112.685 18.8038 114.248 18.811C114.32 18.811 114.393 18.8472 114.52 18.881C114.537 19.0932 114.568 19.3176 114.568 19.5395C114.57 26.6625 114.609 33.7879 114.553 40.911C114.529 44.0275 112.793 46.249 109.729 47.0716C108.265 47.4647 106.769 47.513 105.244 47.3851C104.01 47.2814 102.814 47.0836 101.642 46.7146C101.356 46.6253 101.087 46.4782 100.773 46.3383C100.998 45.3445 101.212 44.4013 101.428 43.4461C103.092 43.9527 104.732 44.341 106.44 44.2638C107.559 44.2132 108.517 43.7862 109.004 42.7273C109.456 41.7456 109.715 40.7011 109.333 39.4999H109.331ZM109.067 29.7935C109.067 27.5309 109.069 25.2683 109.067 23.0057C109.067 22.2386 108.894 22.0553 108.13 22.0095C107.772 21.9878 107.412 22.0143 107.054 21.9998C106.456 21.9733 106.087 22.3158 105.842 22.791C105.681 23.1022 105.568 23.464 105.534 23.8138C105.41 25.0633 105.253 26.3176 105.246 27.5695C105.234 29.8538 105.316 32.1405 105.376 34.4247C105.388 34.9361 105.47 35.4451 105.52 35.954C105.626 37.054 106.284 37.6546 107.388 37.6546C107.568 37.6546 107.748 37.6594 107.926 37.6401C108.795 37.546 109.069 37.2349 109.071 36.3496C109.071 34.1642 109.071 31.9788 109.071 29.7935H109.067Z" fill="#00A5E7"/>
<path d="M158.928 27.6999C158.892 32.2661 158.921 36.7237 158.909 41.2295H153.179C153.023 40.5807 153.011 12.6651 153.167 11.9028C153.326 11.8883 153.499 11.8594 153.672 11.8594C156.872 11.8594 160.076 11.828 163.277 11.8908C164.633 11.9173 165.961 12.1923 167.121 13.0148C168.228 13.7988 168.881 14.8746 169.164 16.1602C169.383 17.1564 169.556 18.1792 169.597 19.1947C169.659 20.7578 169.532 22.3232 168.932 23.7971C168.187 25.6254 166.85 26.7857 164.948 27.3164C163.824 27.6299 162.674 27.6323 161.531 27.6902C160.695 27.7312 159.857 27.6975 158.926 27.6975L158.928 27.6999ZM159.019 24.4025C159.819 24.5858 160.916 24.5352 161.579 24.3132C162.448 24.0238 163.044 23.428 163.303 22.5813C163.848 20.8012 163.889 18.9848 163.339 17.1975C163.06 16.2857 162.503 15.5476 161.543 15.2316C160.722 14.9614 159.881 15.0482 159.062 15.07C158.87 15.7068 158.849 23.6837 159.019 24.4025Z" fill="#00A5E7"/>
<path d="M134.169 18.7978C134.745 18.7978 135.225 18.7978 135.705 18.7978C136.474 18.7978 137.245 18.822 138.013 18.7882C138.481 18.7665 138.81 18.8799 138.959 19.3551C138.988 19.4491 139.058 19.5287 139.118 19.63C139.797 19.3623 140.443 19.0511 141.12 18.8509C142.957 18.3082 144.804 18.2479 146.593 19.0367C147.678 19.5143 148.418 20.385 148.802 21.4874C149.035 22.1531 149.169 22.8912 149.172 23.598C149.2 29.2569 149.188 34.9157 149.186 40.5746C149.186 40.7748 149.164 40.9774 149.15 41.2283H143.675C143.675 40.9075 143.675 40.606 143.675 40.3068C143.675 35.0074 143.675 29.7079 143.675 24.4109C143.675 24.23 143.687 24.0491 143.673 23.8706C143.579 22.7296 142.914 22.1507 141.862 22.0277C141.142 21.9433 140.431 22.0301 139.682 22.4595V41.2331H134.351C134.296 41.18 134.274 41.1632 134.258 41.1439C134.243 41.1246 134.222 41.1028 134.219 41.0787C134.2 40.8761 134.171 40.6711 134.171 40.4685C134.169 33.2924 134.171 26.1187 134.171 18.7978H134.169Z" fill="#00A5E7"/>
<path d="M122.343 49.217C122.905 49.217 123.469 49.2315 124.031 49.2146C125.849 49.1616 127.664 49.1037 129.479 49.041C130.733 48.9975 131.984 48.9493 133.237 48.8962C135.41 48.8022 137.581 48.6864 139.754 48.6044C141.853 48.5248 143.952 48.4862 146.048 48.4138C148.629 48.3221 151.213 48.2112 153.794 48.1123C156.453 48.0086 159.113 47.9048 161.771 47.8011C164.329 47.6998 166.883 47.5985 169.441 47.4972C172.049 47.3935 174.656 47.2922 177.266 47.1909C178.724 47.1354 180.182 47.0799 181.639 47.0244C184.453 46.9207 187.268 46.858 190.079 46.7012C192.661 46.5589 195.242 46.4841 197.826 46.3828C200.561 46.2767 203.298 46.1753 206.033 46.0692C208.591 45.9703 211.145 45.8714 213.703 45.7653C216.284 45.6592 218.865 45.5578 221.449 45.4589C223.98 45.3625 226.506 45.1767 229.042 45.1719C229.962 45.1719 230.881 45.0537 231.801 45.0489C232.464 45.0465 233.126 45.1285 233.784 45.2033C234.005 45.2274 234.229 45.3215 234.423 45.4324C235.141 45.8449 235.187 46.3345 234.572 46.8942C234.118 47.3091 233.626 47.6878 233.208 48.1364C232.173 49.2508 230.862 49.3859 229.467 49.2894C229.085 49.2629 228.703 49.205 228.322 49.205C225.349 49.2002 222.376 49.2002 219.401 49.205C188.082 49.246 156.765 49.2894 125.445 49.3304C124.42 49.3304 123.397 49.3304 122.372 49.3304C122.36 49.2942 122.35 49.2556 122.338 49.2195L122.343 49.217Z" fill="#00A5E7"/>
<path d="M217.523 29.7244C217.439 32.2547 217.283 34.4763 216.606 36.6255C216.334 37.489 215.943 38.2899 215.398 39.0183C214.262 40.538 212.68 41.2544 210.859 41.4305C209.339 41.5776 207.846 41.4063 206.472 40.6345C205.697 40.2003 205.048 39.631 204.551 38.8977C203.584 37.4721 203.051 35.8801 202.772 34.1892C202.457 32.2812 202.364 30.3564 202.479 28.4315C202.604 26.3594 202.825 24.2995 203.682 22.3601C204.333 20.8863 205.329 19.7526 206.768 19.0748C207.402 18.7757 208.127 18.6068 208.826 18.5345C210.23 18.3873 211.642 18.4284 212.984 18.9614C214.317 19.4921 215.304 20.4087 215.976 21.6944C216.889 23.4408 217.194 25.3271 217.343 27.2543C217.412 28.1734 217.48 29.0924 217.528 29.722L217.523 29.7244ZM211.664 29.6858C211.664 29.6858 211.659 29.6858 211.657 29.6858C211.657 28.1685 211.688 26.6513 211.642 25.1365C211.621 24.4249 211.486 23.7109 211.347 23.009C211.263 22.5772 211.037 22.1937 210.598 22.0007C209.709 21.6124 208.78 22.0345 208.566 22.9897C208.41 23.6868 208.28 24.4056 208.276 25.1172C208.244 28.3567 208.24 31.5962 208.276 34.8333C208.283 35.569 208.432 36.3143 208.612 37.0307C208.749 37.5759 209.147 37.969 209.738 38.0679C210.235 38.1524 210.665 37.9908 210.953 37.5807C211.126 37.3347 211.292 37.0404 211.335 36.7509C211.477 35.815 211.616 34.8719 211.649 33.9263C211.7 32.5152 211.664 31.0993 211.664 29.6858Z" fill="#00A5E7"/>
<path d="M181.592 35.8209H185.256C185.487 36.588 185.268 37.3068 185.078 38.0063C184.649 39.5959 183.597 40.6259 182.036 41.0842C180.254 41.6052 178.441 41.6679 176.672 41.0697C175.279 40.5994 174.285 39.5911 173.581 38.3151C172.895 37.0728 172.506 35.7365 172.234 34.3302C171.977 33.0036 171.939 31.6721 171.9 30.3502C171.857 28.8209 171.96 27.2844 172.22 25.7551C172.472 24.262 172.897 22.8581 173.675 21.57C174.784 19.7368 176.417 18.6924 178.552 18.5163C179.779 18.415 181.003 18.4415 182.173 18.9384C183.073 19.3195 183.789 19.9153 184.32 20.7282C184.944 21.681 185.321 22.7158 185.554 23.8447C185.976 25.9047 185.926 27.9743 185.938 30.1404C185.635 30.1572 185.364 30.1862 185.095 30.1862C182.917 30.1886 180.739 30.1862 178.561 30.191C178.288 30.191 178.014 30.2175 177.719 30.2344C177.683 30.4178 177.635 30.5384 177.637 30.659C177.697 32.3788 177.75 34.0963 177.843 35.8137C177.865 36.2165 177.992 36.6266 178.146 37.0029C178.559 38.016 179.695 38.3826 180.639 37.8568C181.119 37.589 181.253 37.1283 181.376 36.6531C181.45 36.3685 181.522 36.0814 181.589 35.8185L181.592 35.8209ZM181.378 27.1252C181.299 25.6393 181.347 24.2885 181.006 22.9643C180.994 22.916 180.965 22.8702 180.953 22.8195C180.761 22.0718 180.002 21.8233 179.462 21.8619C178.669 21.9174 178.12 22.1417 177.949 22.998C177.807 23.6976 177.719 24.414 177.666 25.1255C177.62 25.7551 177.656 26.3895 177.656 27.0938C178.912 27.1638 180.074 27.1252 181.378 27.1252Z" fill="#00A5E7"/>
<path d="M131.437 30.1903C131.101 30.1903 130.822 30.1903 130.541 30.1903C128.464 30.1903 126.39 30.1903 124.313 30.1903C124.108 30.1903 123.902 30.1952 123.698 30.1976C123.381 30.1976 123.225 30.3737 123.22 30.6776C123.215 31.0877 123.215 31.5001 123.232 31.9126C123.263 32.629 123.364 33.3502 123.335 34.0642C123.299 35.0026 123.475 35.9023 123.681 36.802C123.861 37.5859 124.62 38.1239 125.46 38.0973C126.27 38.0732 126.86 37.5474 127.036 36.6717C127.086 36.4233 127.091 36.1652 127.115 35.9167C127.679 35.7672 130.064 35.7383 130.93 35.8661C131.204 37.8368 130.164 40.1139 128.277 40.8399C126.176 41.6504 124.044 41.7734 121.921 40.8978C120.867 40.4636 120.091 39.6845 119.476 38.7462C118.602 37.4171 118.127 35.9409 117.851 34.3778C117.464 32.2093 117.438 30.0239 117.579 27.8482C117.697 26.0391 117.973 24.2348 118.761 22.5463C119.46 21.0508 120.425 19.8254 121.931 19.1259C122.543 18.8413 123.23 18.6507 123.9 18.5639C125.576 18.3516 127.225 18.424 128.697 19.4322C129.302 19.8471 129.778 20.3681 130.14 21.0049C130.825 22.2038 131.271 23.4846 131.343 24.8668C131.43 26.507 131.461 28.1497 131.511 29.7899C131.514 29.8864 131.475 29.9853 131.435 30.1903H131.437ZM125.076 27.1269V27.1318C125.484 27.1318 125.893 27.139 126.301 27.1318C126.976 27.1173 127.081 27.0498 127.04 26.3768C126.976 25.3082 126.875 24.2372 126.728 23.1759C126.623 22.4185 126.005 21.9143 125.249 21.854C124.404 21.7889 123.835 22.1531 123.585 22.9925C123.455 23.4267 123.393 23.8899 123.357 24.3433C123.299 25.0814 123.294 25.8244 123.261 26.5649C123.239 27.0063 123.306 27.1028 123.772 27.1221C124.204 27.1414 124.639 27.1269 125.074 27.1269H125.076Z" fill="#00A5E7"/>
<path d="M200.669 24.132H196.423C196.27 23.6737 196.166 23.2202 195.972 22.8125C195.657 22.1564 195.023 21.8573 194.332 21.9297C193.616 22.002 193.081 22.3566 192.942 23.0513C192.843 23.5313 192.898 24.0789 193.023 24.5589C193.187 25.1788 193.54 25.7312 194.02 26.1823C194.918 27.0217 195.789 27.8973 196.724 28.6957C197.742 29.5689 198.693 30.4976 199.504 31.5613C200.695 33.122 201.003 34.8925 200.666 36.8029C200.253 39.1475 198.904 40.6117 196.599 41.1882C196.474 41.2195 196.351 41.2581 196.231 41.2991C196.183 41.316 196.14 41.3449 195.996 41.4221V43.8632C194.992 43.95 194.085 43.9115 193.136 43.8946C192.978 43.3012 193.074 42.7367 193.057 42.1844C193.033 41.4125 193.04 41.4342 192.255 41.2774C190.826 40.9928 189.597 40.3753 188.773 39.0992C188.302 38.3708 188.081 37.5627 187.995 36.7136C187.961 36.3856 187.99 36.0479 187.99 35.6716H192.348C192.382 35.9394 192.392 36.195 192.447 36.4363C192.774 37.8739 193.77 38.1609 194.949 37.8594C195.732 37.6592 196.154 36.7088 195.943 35.8477C195.785 35.2037 195.444 34.6609 194.963 34.2195C193.888 33.2329 192.795 32.2608 191.7 31.2936C190.502 30.2347 189.366 29.1227 188.775 27.5885C188.499 26.8721 188.29 26.1292 188.29 25.3477C188.29 24.6072 188.24 23.8642 188.283 23.1261C188.41 21.0348 189.664 19.7853 191.47 18.9893C191.794 18.847 192.14 18.7143 192.488 18.6685C192.913 18.613 193.062 18.4056 193.054 18.0076C193.045 17.4672 193.052 16.9269 193.054 16.3866C193.054 16.2612 193.081 16.1357 193.107 15.9235C194.02 15.8535 194.93 15.8945 195.948 15.8969V18.5358C197.386 18.7794 198.568 19.3222 199.473 20.3835C200.373 21.4376 200.609 22.704 200.671 24.1344L200.669 24.132Z" fill="#00A5E7"/>
<path d="M223.745 35.6982C223.812 35.9973 223.884 36.3181 223.954 36.6389C224.148 37.5531 224.921 38.0404 226.007 37.9318C226.854 37.8474 227.335 37.2806 227.395 36.3784C227.445 35.6307 227.205 35.0131 226.674 34.5138C225.63 33.5297 224.578 32.5528 223.514 31.5903C222.393 30.5748 221.202 29.6051 220.532 28.2109C220.181 27.4825 219.872 26.6792 219.788 25.8856C219.667 24.7471 219.612 23.5579 219.814 22.4435C220.131 20.6875 221.396 19.6189 222.986 18.9604C224.398 18.3767 225.882 18.4104 227.366 18.5672C228.372 18.6734 229.325 18.9652 230.132 19.5948C231.58 20.7213 232.125 22.253 232.103 24.0331C231.501 24.202 229.085 24.2406 227.851 24.1079C227.796 23.9029 227.728 23.6665 227.671 23.4277C227.38 22.2144 226.545 21.6837 225.234 22.0479C224.511 22.2481 224.124 23.3288 224.347 24.1971C224.652 25.3767 225.438 26.192 226.28 26.9952C227.69 28.3364 229.244 29.5183 230.523 31.0042C232.276 33.04 232.694 35.3316 231.875 37.8329C231.318 39.5335 230.055 40.6238 228.36 41.1183C226.475 41.6658 224.564 41.6345 222.698 40.9904C221.113 40.4429 220.073 39.3526 219.651 37.7003C219.485 37.0562 219.274 36.4194 219.413 35.744C219.984 35.5921 222.775 35.5607 223.738 35.7006L223.745 35.6982Z" fill="#00A5E7"/>
<path d="M87.1313 18.7964C87.602 18.7964 88.0294 18.7964 88.4592 18.7964C89.2781 18.7964 90.0993 18.8229 90.9181 18.7868C91.4272 18.7626 91.7681 18.8808 91.869 19.426C91.881 19.4959 91.9482 19.5538 92.0323 19.6768C92.2196 19.5731 92.4093 19.4694 92.5966 19.3584C94.1286 18.4659 95.7638 18.2802 97.4711 18.6565C97.9585 18.765 98.0786 18.9411 98.0906 19.5707C98.1122 20.6248 98.1026 21.6765 98.0978 22.7306C98.0978 22.9308 98.0666 23.131 98.045 23.3939C97.6055 23.2974 97.2069 23.2323 96.8203 23.1238C95.7038 22.8102 94.5896 22.8946 93.4778 23.1286C92.7262 23.2854 92.6134 23.447 92.6134 24.2406C92.611 29.6365 92.6134 35.0325 92.6134 40.4284C92.6134 40.6576 92.6134 40.8867 92.6134 41.2244C90.8149 41.3306 88.9947 41.251 87.1313 41.2727V18.794V18.7964Z" fill="#00A5E7"/>
<path d="M33.0821 30.691C33.0581 31.1252 33.0389 31.5039 33.0125 31.9646C32.3065 32.0659 31.6053 32.0201 30.8465 32.0032C30.8057 31.5739 30.7673 31.1759 30.7361 30.8575C29.742 30.5149 28.7719 30.2689 27.881 29.854C27.0094 29.4488 26.1569 28.9519 25.4534 28.1438C26.2578 27.6011 27.031 27.0776 27.8354 26.5349C28.0827 26.7496 28.3156 26.945 28.5414 27.1452C29.7084 28.1824 31.0963 28.3585 32.573 28.1969C32.6979 28.1824 32.818 28.1269 32.938 28.0811C33.9874 27.6662 34.2803 26.6676 33.4663 25.8933C32.7315 25.1938 31.8623 24.6245 31.0026 24.0721C29.6892 23.2303 28.3228 22.4777 27.1294 21.4453C25.3525 19.9088 25.2949 17.1348 27.5088 15.854C28.1668 15.4729 28.8895 15.1496 29.6267 14.9856C30.4215 14.8071 30.5536 14.619 30.4263 13.9122C30.4191 13.8712 30.4527 13.8206 30.4888 13.712C30.9738 13.712 31.4829 13.7096 31.9919 13.712C32.1672 13.712 32.3401 13.7361 32.5346 13.7506C32.5682 13.876 32.6187 13.9725 32.6139 14.0666C32.585 14.5153 32.8228 14.701 33.231 14.7902C33.8769 14.935 34.5372 15.058 35.1472 15.3016C36.307 15.7623 37.193 16.5607 37.6901 17.7379C37.7669 17.9188 37.7981 18.119 37.8726 18.3819C37.3995 18.5001 36.9841 18.6086 36.5687 18.7051C36.0957 18.8161 35.6202 18.9126 35.1472 19.0235C34.7942 19.1055 34.6093 19.0018 34.4388 18.6472C34.2323 18.2227 33.9417 17.7958 33.584 17.4991C32.7723 16.8261 31.7782 16.9081 30.8826 17.2048C29.6291 17.6197 29.449 19.0163 30.5176 19.8026C31.2788 20.3623 32.0976 20.8471 32.9188 21.3199C34.2971 22.1135 35.7115 22.8443 36.9169 23.9009C38.1775 25.0056 38.4921 26.5446 37.8726 28.098C37.606 28.7685 37.1162 29.263 36.5087 29.6176C35.7091 30.088 34.8494 30.4136 33.9105 30.4956C33.6416 30.5198 33.3775 30.6187 33.0893 30.691H33.0821Z" fill="#00A5E7"/>
</svg>
